<?xml version="1.0" encoding="UTF-8"?>
<!-- Created with Inkscape (http://www.inkscape.org/) -->
<svg width="42.821mm" height="52.208mm" version="1.1" viewBox="0 0 42.821 52.209" xmlns="http://www.w3.org/2000/svg" xmlns:xlink="http://www.w3.org/1999/xlink">
 <defs>
  <linearGradient id="linearGradient37379">
   <stop stop-color="#ce5857" offset="0"/>
   <stop stop-color="#844040" offset="1"/>
  </linearGradient>
  <clipPath id="clipPath43573-9">
   <path d="m-74.607 23.917h352.69v238.1h-352.69z" fill="#e4e5e9"/>
  </clipPath>
  <linearGradient id="linearGradient679852" x1="108.52" x2="235.24" y1="151.71" y2="-27.13" gradientTransform="matrix(3.7795 0 0 3.7795 -346.72 1302.5)" gradientUnits="userSpaceOnUse" xlink:href="#linearGradient37379"/>
  <clipPath id="clipPath43573-7">
   <path d="m-74.607 23.917h352.69v238.1h-352.69z" fill="#e4e5e9"/>
  </clipPath>
  <linearGradient id="linearGradient680162" x1="108.52" x2="235.24" y1="151.71" y2="-27.13" gradientTransform="matrix(3.7795 0 0 3.7795 -491.05 1590.9)" gradientUnits="userSpaceOnUse" xlink:href="#linearGradient37379"/>
  <linearGradient id="linearGradient680164" x1="-75.814" x2="297.85" y1="110.18" y2="110.18" gradientTransform="matrix(3.7795 0 0 3.7795 -491.05 1590.9)" gradientUnits="userSpaceOnUse">
   <stop stop-color="#fff" offset="0"/>
   <stop stop-color="#fff" stop-opacity="0" offset="1"/>
  </linearGradient>
 </defs>
 <g transform="translate(-21.713 -62.935)">
  <path transform="scale(.26458)" d="m-632.74 1310.6 4.0469 133.57v-6.7441s158.44 188.16 230.06 273.23c2.9707-0.7184 5.9414-1.4378 8.9121-2.1562 45.795 30.53 91.585 61.058 137.38 91.586 55.335 33.074 110.67 66.145 166 99.217 133.89-28.867 267.77-57.733 401.66-86.602 27.557-6.7486 55.112-13.498 82.666-20.248 1e-3 54.063 1e-3 108.12 0 162.18-174.72 26.534-349.44 53.066-524.15 79.598 115.44 137.09 173.18 205.66 259.76 308.5 214.97-162.35 644.91-487.05 644.91-487.05l-2.6992-532.93z" clip-path="url(#clipPath43573-9)" fill="url(#linearGradient679852)"/>
  <path transform="scale(.26458)" d="m-263.2 2178.8c-28.377-0.083-59.838 3.5454-90.461 9.4629 110.51 102.64 218.88 179.81 323.36 210.87 179.21 53.265 347-29.007 512.09-143.2-14.665 2.8064-32.244 6.7176-53.656 11.441-80.722 17.808-214.61 46.676-309.22 44.574-94.611-2.102-149.94-35.176-200.51-66.977-50.563-31.801-96.356-62.327-167.91-65.826-4.472-0.2187-9.0434-0.3321-13.699-0.3457z" clip-path="url(#clipPath43573-7)" fill="url(#linearGradient680162)" stroke="url(#linearGradient680164)" stroke-width="1px"/>
  <path d="m43.485 115.02c-0.39905-0.16332-0.74127-0.58005-0.91174-1.1103-0.1122-0.34891-0.23118-0.44486-0.5703-0.45991-0.23568-0.0104-0.9328-0.10369-1.5491-0.20719-1.0052-0.16882-1.1943-0.16114-1.8371 0.0747-0.39405 0.14457-0.9574 0.27088-1.2519 0.28068-0.29445 0.01-0.65817 0.12507-0.80832 0.25614-0.15014 0.13107-0.41932 0.31397-0.59824 0.40644-0.45482 0.2351-7.564 0.37517-9.9895 0.19682l-1.9376-0.14248-0.85481-0.91795c-0.95724-1.028-1.1476-1.4969-1.3786-3.3955-0.23713-1.9491 0.02333-4.3034 0.82248-7.4376 0.72311-2.8354 1.2728-4.1196 2.357-5.5062 0.35811-0.45796 0.65106-0.9107 0.65106-1.0061 0-0.0954 0.14881-0.38168 0.33067-0.63619 0.18186-0.25452 0.58291-0.95915 0.89125-1.5658 0.30828-0.60669 0.67517-1.2023 0.81526-1.3235 0.36961-0.31994 1.5588-2.8102 1.5184-3.1799-0.02388-0.21726 0.06849-0.34279 0.29934-0.40744 0.18347-0.0514 0.76349-0.65438 1.2889-1.34 0.52542-0.68558 1.5669-1.8129 2.3144-2.5052 1.094-1.0131 1.4237-1.2422 1.6901-1.1744l0.331 0.0843-0.33067-0.1702c-0.26812-0.138-0.33067-0.29431-0.33067-0.82624 0-0.59016-0.03055-0.64808-0.3029-0.57682-0.36122 0.0945-0.54458-0.2465-0.29456-0.54775 0.11087-0.13363 0.13603-0.46324 0.07204-0.94554-0.07977-0.60122-0.1562-0.74878-0.40666-0.78501-0.27262-0.0394-0.30317-0.1283-0.26351-0.76613 0.06055-0.97267 0.25752-1.4626 0.54391-1.3527 0.15453 0.0593 0.18991 0.0292 0.11187-0.0953-0.06282-0.10011-0.09515-0.29777-0.07188-0.43922 0.02333-0.14146-0.03666-0.25719-0.13287-0.25719-0.12498 0-0.14742-0.20883-0.07832-0.7298 0.06299-0.4747 0.03499-0.82915-0.08071-1.0141-0.13903-0.22267-0.13742-0.50873 0.0078-1.3202 0.17414-0.97442 0.63545-2.0631 1.5976-3.7699 0.2278-0.40416 0.89447-1.6106 1.4815-2.681 1.1292-2.0589 2.505-4.0357 3.1764-4.5639 0.31612-0.24865 0.46532-0.28439 0.68856-0.16491 0.38922 0.2083 1.4429 1.6698 1.8765 2.6027 0.19569 0.42105 0.44371 0.76555 0.55114 0.76555 0.23618 0 0.23652 0.0137-0.025-1.1757-0.24657-1.1211-0.26824-1.4697-0.09132-1.4697 0.19069 0 0.40088 0.61843 0.82409 2.425 0.2083 0.88915 0.43099 1.7007 0.49492 1.8034 0.06393 0.10274 0.5413 0.2265 1.0609 0.27502l0.94474 0.0882 0.5218-0.78941c0.28701-0.43417 0.84248-1.2731 1.2344-1.8642s0.93974-1.248 1.2173-1.4597l0.5047-0.38494 0.52208 0.28117c0.50714 0.2731 1.9518 2.1209 1.9518 2.4964 0 0.0987 0.0916 0.25543 0.20358 0.34836 0.16375 0.1359 0.35128-0.0303 0.95846-0.84929 0.64634-0.87192 0.99045-1.1942 1.275-1.1942 0.19252 0-0.04277 0.39313-0.92424 1.5446l-0.98568 1.2875 0.3265 1.263c0.17958 0.69468 0.40821 1.3388 0.50803 1.4314 0.13903 0.12896 0.76066-0.17171 2.6551-1.2843 2.2484-1.3204 2.7438-1.5303 2.7438-1.1623 0 0.14262-3.7033 2.3631-4.7397 2.8419-0.38394 0.17737-0.69806 0.39313-0.69806 0.47946 0 0.0863 0.12304 0.41739 0.2734 0.7357 0.39083 0.82716 0.49864 1.5297 0.27823 1.8122-0.16197 0.20758-0.1542 0.21264 0.0641 0.0418 0.22246-0.17409 0.27223-0.11385 0.47765 0.5778 0.12609 0.42469 0.23152 0.8759 0.23418 1.0027 0.0089 0.41695 0.56796 0.93716 0.99195 0.92291 0.21963-7e-3 1.0938-0.18263 1.9425-0.38945 1.6241-0.39577 2.2045-0.46088 2.2045-0.24729 0 0.19231-0.61751 0.39632-2.5352 0.83756-1.923 0.44247-1.8244 0.33845-1.6344 1.7247l0.09248 0.67484 1.0131 0.0998c1.566 0.15431 1.5076 0.54899-0.08376 0.56609l-0.88319 0.01-0.1242 0.62461c-0.18153 0.91306-0.52081 0.82663-0.57685-0.14697l-0.04444-0.77158-0.73488 0.0424c-0.95168 0.0549-1.7548-0.38645-1.6208-0.89072 0.04777-0.18009-0.04499-0.0875-0.20591 0.20579-0.16114 0.29327-0.39844 0.57371-0.52742 0.62319-0.12892 0.0495-0.61096-0.0702-1.0712-0.26589-0.74744-0.31789-0.86808-0.33306-1.1307-0.14216-0.91619 0.6661-1.2147 0.79372-1.8576 0.79424-0.4461 3e-4 -0.79837-0.0938-1.019-0.2725-0.32911-0.2665-0.34894-0.26615-0.82481 0.0147-0.26824 0.15824-1.2634 0.54694-2.2114 0.86378-0.94802 0.31683-1.9776 0.7441-2.288 0.94947-0.31034 0.20537-0.63856 0.34863-0.72944 0.31834-0.09087-0.0303-0.43349 0.0863-0.76138 0.25913-0.73677 0.3883-0.81259 0.81296-0.4391 2.4597 0.20902 0.92171 0.22458 1.212 0.08177 1.5255-0.2273 0.49884 0.01722 0.78947 1.0301 1.2253 0.7851 0.33774 0.94074 0.77075 0.30945 0.86082-0.4036 0.0576-0.40521 0.0948-0.02722 0.62539 0.42004 0.58997 1.0915 2.129 1.2983 2.9759 0.09521 0.38988 0.36511 1.0512 0.59979 1.4697 0.52836 0.94224 0.91208 2.388 1.489 5.6107 0.66956 3.7401 0.74299 4.2319 0.67223 4.5024-0.05332 0.20321 0.06505 0.25692 0.65484 0.29771l0.71961 0.0498 0.23846-0.62461c0.2378-0.62295 0.64106-0.85533 0.63762-0.36742 0 0.14145-0.16692 0.85241-0.36861 1.5799-0.4161 1.5005-1.0378 5.1402-1.184 6.9312l-0.09787 1.1994 0.52825 0.34372c0.65851 0.42848 0.93641 1.0224 0.71044 1.5183-0.23646 0.51892-0.71883 0.774-1.7909 0.94702-1.1075 0.17873-1.2915 0.18063-1.6901 0.0174zm-9.8027-1.3601c0.32095-0.32099 0.18958-0.81033-0.34317-1.2781-0.28573-0.25088-0.59985-0.46392-0.69811-0.47343-0.09821-0.01-0.93913-0.0281-1.8687-0.0412-1.8114-0.0256-1.9715-0.075-3.1805-0.98338l-0.60868-0.45724-0.82998 0.67605c-0.45648 0.37183-0.91402 0.67605-1.0167 0.67605s-0.30684 0.0879-0.45376 0.19534c-0.23118 0.16906-0.24174 0.24285-0.07826 0.54834 0.10393 0.19414 0.34378 0.47478 0.53303 0.62364 0.18925 0.14886 0.34406 0.36505 0.34406 0.48044 0 0.17661 0.63445 0.20978 4.0122 0.20978 2.9247 0 4.06-0.0478 4.1886-0.17636zm1.646-0.93667c0-0.84061 0.03333-0.95974 0.25718-0.91742 0.18297 0.0346 0.30245 0.28171 0.41388 0.85584 0.1492 0.76893 0.16558 0.79067 0.34533 0.45872 0.41177-0.7603 0.12142-1.8505-0.5949-2.2338-0.2564-0.13724-0.50003-0.0925-1.3416 0.24627l-1.0283 0.41395 0.43915 0.37318c0.57469 0.48837 0.82048 0.978 0.71066 1.4156-0.0791 0.31516-0.04055 0.35374 0.35489 0.35374h0.44371zm2.8746 0.0652c0.61574-0.27237 0.87153-0.30057 1.9723-0.21747 2.0543 0.15508 2.4376-0.10272 2.0532-1.3811-0.08493-0.28238-0.34772-1.2824-0.58407-2.2224-0.35761-1.4225-0.69061-2.4597-1.5472-4.8193-0.0556-0.15307-0.22135-0.0673-0.62196 0.32193-0.30034 0.29183-0.73233 0.60068-0.95985 0.68632-0.53336 0.20074-1.6535 0.20024-2.0293-1e-3 -0.28296-0.15142-0.28884-0.12581-0.17675 0.77158 0.06377 0.51052 0.11126 1.4431 0.10559 2.0725-0.0083 0.95247-0.06677 1.2206-0.34722 1.6-0.32223 0.43582-0.32512 0.46239-0.06549 0.60767 0.77599 0.43428 1.2341 1.3299 1.2359 2.4165 0 0.5644 0.04444 0.57183 0.96485 0.1647zm5.9134-1.8313 1.0348-0.2337 0.09321-0.75833c0.0511-0.41708 0.12809-0.94021 0.17064-1.1625 0.06971-0.36425 0.0361-0.40393-0.33845-0.40191-0.60657 3e-3 -0.704 0.11267-1.1019 1.2366-0.38427 1.0854-0.7591 1.4999-1.006 1.1126-0.1132-0.17758-0.14098-0.15614-0.14281 0.11023 0 0.39398-0.01944 0.39274 1.2905 0.097zm-11.767-2e-3c-0.04888-0.0488-0.17558-0.0541-0.28168-0.0116-0.11726 0.0469-0.08243 0.0817 0.08876 0.0888 0.15492 6e-3 0.24174-0.0284 0.19291-0.0772zm0.58785 0c-0.04888-0.0488-0.17558-0.0541-0.28168-0.0116-0.11726 0.0469-0.08243 0.0817 0.08876 0.0888 0.15498 6e-3 0.24174-0.0284 0.19291-0.0772zm1.5869-0.76463c-0.04555-0.0453-0.16386-9e-5 -0.26351 0.10035-0.14409 0.14514-0.1272 0.16202 0.08226 0.0823 0.14492-0.0552 0.22652-0.13737 0.18125-0.18262zm11.148-3.078c0.16942-0.57297 0.52969-2.7331 0.46643-2.7964-0.03722-0.0373-0.2859 0.0591-0.55241 0.21428-0.45937 0.26747-0.49131 0.34192-0.61407 1.4299-0.10404 0.92224-0.0896 1.173 0.07349 1.2763 0.31734 0.20102 0.54375 0.15617 0.62657-0.12413zm-11.079-6.1103c0-0.0263-0.18186-0.2082-0.40416-0.40416l-0.40416-0.3563 0.35628 0.40416c0.333 0.37775 0.45204 0.47156 0.45204 0.3563zm-1.5431-0.24607c-0.04999-0.0808-0.16964-0.14596-0.2659-0.14472-0.10515 1e-3 -0.08704 0.0591 0.04555 0.14472 0.28234 0.18246 0.33322 0.18246 0.22046 0zm6.7874-0.17453c-0.04666-0.11724-0.08171-0.0824-0.08876 0.0888-0.0061 0.15492 0.02833 0.24173 0.07721 0.19289 0.04888-0.0488 0.05388-0.17559 0.01167-0.28169zm9.3486-22.026 0.59635-0.59636 0.83764 0.37591c1.1936 0.53565 1.3153 0.51004 1.3153-0.27676 0-0.35897 0.06693-0.69404 0.14875-0.7446 0.08504-0.0526-0.07988-0.3551-0.38527-0.70676-0.29373-0.33817-0.81526-1.1099-1.159-1.7149-0.72394-1.2742-1.1986-1.7005-1.7417-1.5642-0.48992 0.12297-0.60102 0.53629-0.323 1.2017 0.51703 1.2374 0.21186 2.1965-0.91446 2.8737-0.30178 0.18147-0.57535 0.35061-0.6079 0.37585-0.03277 0.0253 0.11876 0.18586 0.33622 0.35692 0.32378 0.2547 0.36283 0.35023 0.21558 0.52764-0.14331 0.17274-0.13703 0.2437 0.03111 0.35015 0.47937 0.30333 1.046 0.14595 1.6503-0.45835zm0.76821-1.1624c-0.04833-0.0782-0.27085-0.10555-0.49453-0.0608-0.46765 0.0935-0.91635-0.28501-0.65162-0.54973 0.24613-0.24614 1.2733-0.42173 1.7404-0.29753 0.59163 0.15729 0.67456 0.6991 0.1382 0.90302-0.48337 0.18376-0.62146 0.18471-0.73249 5e-3zm-3.5849 1.0607c0.1828-0.23309 0.17764-0.23829-0.05555-0.0555-0.14148 0.11094-0.25718 0.22668-0.25718 0.2572 0 0.12095 0.1207 0.0431 0.31267-0.20171zm6.3569-0.55876c0.04999-0.13078 0.02555-0.18978-0.05777-0.13828-0.07988 0.0494-0.14526 0.15202-0.14526 0.22808 0 0.2114 0.10532 0.16481 0.20302-0.0898zm-9.1313-0.45711c-0.10104-0.0408-0.26635-0.0408-0.36739 0-0.10104 0.0408-0.01833 0.0741 0.18369 0.0741 0.20208 0 0.28473-0.0334 0.18369-0.0741zm9.1824-0.43237c-0.04888-0.0488-0.17564-0.054-0.28173-0.0116-0.1172 0.0469-0.08237 0.0817 0.08882 0.0888 0.15492 6e-3 0.24174-0.0284 0.19291-0.0772zm0.58785-0.14696c-0.04888-0.0488-0.17558-0.0541-0.28168-0.0116-0.11726 0.0469-0.08243 0.0817 0.08876 0.0888 0.15492 6e-3 0.24174-0.0284 0.19291-0.0772zm-8.5241-0.29394c-0.04888-0.0488-0.17564-0.054-0.28173-0.0116-0.1172 0.0469-0.08238 0.0817 0.08882 0.0888 0.15492 6e-3 0.24174-0.0283 0.19291-0.0772zm-1.8145-0.34554c0.20308-0.0772 0.48131-0.31141 0.61829-0.52041 0.20364-0.31085 0.21785-0.4483 0.07793-0.75536-0.1562-0.34277-0.23141-0.36922-0.86592-0.30461-0.99029 0.10085-1.2827 0.18363-1.2827 0.3631 0 0.0866-0.04944 0.20705-0.1102 0.26767-0.18419 0.1842-0.1237 0.61464 0.1207 0.85907 0.26046 0.26046 0.89086 0.30005 1.4419 0.0905zm-1.134-0.10454c-0.21969-0.21968-0.07221-0.63244 0.35417-0.99122 0.68711-0.57816 1.1645-0.45722 1.1645 0.29506 0 0.40477-1.2411 0.9737-1.5186 0.69616zm11.098-0.27255c-0.37011-0.16075-0.47676-0.28903-0.44087-0.53036 0.02611-0.17507 0.16681-0.39121 0.31284-0.48029 0.22024-0.13434 0.33945-0.0801 0.69811 0.31798 0.41699 0.46274 0.43254 0.46751 0.43254 0.13301 0-0.59057-0.82037-1.1022-1.33-0.82953-0.68217 0.36511-0.65234 1.1803 0.05388 1.4648 0.54325 0.2189 0.79298 0.14997 0.27373-0.0756zm-0.16597-3.9949c0.16658 0.14794 0.16775 0.13532 0.0072-0.0773-0.14709-0.19462-0.25724-0.21921-0.47054-0.10505-0.1532 0.082-0.27851 0.18212-0.27851 0.22254 0 0.0404 0.12215 8e-3 0.2714-0.0718 0.1883-0.10077 0.33245-0.0911 0.47059 0.0315zm-7.9899-0.36511c-0.04666-0.11724-0.08177-0.0824-0.08882 0.0888-0.0067 0.15493 0.02833 0.24173 0.07721 0.1929 0.04888-0.0488 0.05388-0.1756 0.01166-0.28169zm-0.52336-0.95345c-0.17325-0.29794-0.21508-0.20257-0.07327 0.167 0.05055 0.13135 0.12259 0.20785 0.16042 0.17001 0.03777-0.0378 0-0.1895-0.08715-0.33701zm6.3751 0.0992c0.14631-0.16166 0.23291-0.29394 0.19252-0.29394-0.04055 0-0.19319 0.13228-0.3395 0.29394s-0.23296 0.29394-0.19252 0.29394c0.04055 0 0.19319-0.13228 0.3395-0.29394zm-9.4794 0.0915c0-0.0305-0.1157-0.14625-0.25718-0.25719-0.23307-0.18281-0.2383-0.17761-0.05555 0.0555 0.19202 0.24481 0.31267 0.32266 0.31267 0.20171zm1.0288-0.15979c0-0.0376-0.14881-0.14042-0.33067-0.22856-0.31756-0.15388-0.31934-0.15117-0.04555 0.0683 0.29984 0.24023 0.37605 0.27271 0.37605 0.16025zm-1.6166-0.42048c0-0.0263-0.18186-0.2082-0.40416-0.40416l-0.40416-0.35629 0.35628 0.40416c0.333 0.37775 0.45204 0.47156 0.45204 0.35629zm10.876-1.7382c0-0.43902-0.60718-1.9422-0.92591-2.2923-0.66223-0.72733-0.91796-0.36388-1.042 1.4807l-0.09715 1.444 0.43699 0.40817c0.2403 0.2245 0.39077 0.47185 0.33439 0.54967-0.05638 0.0778 0.21163-0.18954 0.59557-0.59415 0.38394-0.40461 0.69811-0.85284 0.69811-0.99608zm-10.141 1.5884c0-0.0279-0.14881-0.17668-0.33067-0.33067l-0.33067-0.27997 0.27996 0.33067c0.26312 0.31076 0.38138 0.39759 0.38138 0.27997zm10.48-0.59217c0.11115 0.0624 0.10565 0.0239-0.015-0.10591-0.1617-0.17377-0.21041-0.17152-0.32845 0.0152-0.07621 0.12057-0.13759 0.28536-0.13637 0.36619 0 0.0808 0.07038 0.0298 0.15375-0.11332 0.08332-0.14316 0.23013-0.21612 0.32617-0.16215zm-10.418-0.87976c0.4682-0.30678 0.53525-0.84925 0.19719-1.5954-0.15692-0.34626-0.4166-0.97679-0.57713-1.4012-0.36583-0.96707-0.75494-1.0441-1.1137-0.22045-0.26729 0.61375-0.2919 3.0386-0.03388 3.3494 0.18941 0.22821 1.0973 0.14954 1.5276-0.13236zm6.555 45.912c-0.11887-0.0752-0.17114-0.18177-0.11609-0.23683 0.05499-0.055 0.0056-0.28685-0.11448-0.51508-0.28046-0.54239-0.27201-1.4548 0.02333-2.5072 0.26885-0.95819 0.5638-1.2936 1.2626-1.4356 0.70505-0.14336 0.72861-0.6186 0.05055-1.0187-0.28712-0.16942-0.52208-0.37408-0.52208-0.45479 0-0.251 0.49986-0.43849 0.76838-0.28821 0.1863 0.10426 0.28673 0.0626 0.41171-0.17092 0.23952-0.44753 0.08065-0.70032-0.47359-0.75354-0.36961-0.0355-0.48603-0.11596-0.48603-0.33591 0-0.2121 0.15675-0.333 0.58785-0.45336 0.54986-0.15353 0.59074-0.20261 0.63223-0.75926 0.04055-0.54744 0.0083-0.60764-0.40416-0.75147-0.62246-0.21698-0.63406-0.75951-0.01611-0.75951 0.5523 0 0.66823-0.19486 0.37872-0.63667-0.21236-0.32413-0.20802-0.37794 0.05632-0.70224 0.28479-0.34933 0.28457-0.35306-0.03333-0.69492l-0.31962-0.3437 0.38733-0.31765c0.33984-0.2787 0.39916-0.46183 0.48359-1.4934 0.22163-2.7065 0.42471-4.1938 0.75288-5.5133 0.1913-0.76903 0.44776-2.0164 0.56996-2.7719 0.1222-0.75551 0.29568-1.4623 0.3856-1.5706 0.12015-0.14482 0.11626-0.42237-0.015-1.0493-0.09804-0.4688-0.19619-1.3717-0.21813-2.0065-0.02222-0.63478-0.11243-1.2267-0.20108-1.3154-0.08865-0.0887-0.1612-0.21766-0.1612-0.28664 0-0.19579 0.79098-1.1385 0.95524-1.1385 0.0916-1e-5 0.14698 0.84503 0.14698 2.2412 0 1.9987 0.04388 2.3984 0.40588 3.6938 0.33245 1.1896 0.37233 1.494 0.22046 1.6816-0.15492 0.19139-0.14914 0.2077 0.035 0.0992 0.18897-0.11136 0.19214-0.095 0.02222 0.11466-0.16831 0.20756-0.16153 0.2813 0.04444 0.48739 0.32756 0.32758 0.26007 1.3259-0.08582 1.2694-0.15314-0.025-0.26435 0.0902-0.30812 0.31928-0.0646 0.33777-0.04999 0.34635 0.25129 0.14886 0.35839-0.23481 0.51686-0.1508 0.51686 0.27398 0 0.22643-0.0771 0.27184-0.36744 0.21634-0.36416-0.0696-0.36738-0.0611-0.36738 0.9808 0 0.57807-0.10565 1.8089-0.2348 2.7352s-0.20236 1.9742-0.16275 2.3287c0.04277 0.38074-0.01166 0.84494-0.13264 1.1343-0.27074 0.64796-0.25974 1.5309 0.02388 1.9362 0.19819 0.28288 0.36055 0.3262 1.2125 0.32341 1.1923-4e-3 1.9337-0.31437 2.728-1.1423 0.9954-1.0376 1.0222-2.3239 0.10021-4.8067-0.77665-2.0914-0.89774-2.4348-1.0623-3.0128-0.0806-0.28291-0.23991-0.83612-0.35411-1.2294-0.13559-0.46701-0.20724-1.4354-0.20658-2.7924 0-2.2771 0.2664-3.7694 0.9414-5.2957 0.39488-0.89287 1.5204-2.587 1.7187-2.587 0.06604 0 0.53597-0.37234 1.0442-0.82742 1.0508-0.94085 1.9131-1.3671 2.9972-1.4816 0.97596-0.10306 1.6988 0.1464 2.2529 0.77751 0.63745 0.72601 0.70911 1.1644 0.31262 1.9118-0.3635 0.68516-1.5248 1.4114-2.5475 1.5932-1.137 0.20205-2.0928 1.5347-2.4658 3.438-0.24963 1.2737-0.09376 4.6887 0.2959 6.4826 0.16558 0.76231 0.53814 2.052 0.82798 2.8659 0.93163 2.6162 1.1141 3.4278 1.0433 4.6396-0.11687 2.0005-0.90319 3.5782-2.2717 4.5582-0.94968 0.68008-2.6574 1.37-4.0033 1.6173-1.4663 0.26945-1.3863 0.1475-1.4697 2.2422-0.04055 1.0157-0.10654 1.8719-0.14698 1.9025-0.04055 0.0307-0.29345 0.23429-0.56241 0.45252-0.40032 0.32492-0.63695 0.39678-1.3065 0.39678-0.5868 0-0.86714 0.0678-0.99312 0.24005-0.27607 0.37755-2.2704 0.63693-2.7185 0.35356zm4.5334-1.2733 0.45926-0.0919v-2.1669c0-2.2852-0.22863-4.0518-0.7506-5.8002-0.20658-0.69203-0.34261-0.9535-0.42054-0.80832-0.06332 0.11803-0.35861 1.518-0.65617 3.111-0.29762 1.593-0.60196 3.1086-0.67639 3.3681-0.10793 0.3763-0.07649 0.56686 0.15542 0.94212 0.15992 0.25872 0.29073 0.60599 0.29073 0.77171 0 0.75678 0.38155 0.91775 1.5983 0.6744zm8.202-10.076c-0.04666-0.11725-0.08177-0.0824-0.08882 0.0888-0.0067 0.15493 0.02833 0.24173 0.07721 0.1929 0.04888-0.0488 0.05388-0.1756 0.01167-0.28169zm-8.3772-7.0544c-0.04666-0.11724-0.08171-0.0824-0.08876 0.0888-0.0067 0.15493 0.02833 0.24173 0.07715 0.1929 0.04888-0.0488 0.05388-0.1756 0.01167-0.28169zm0.52425-0.36372c-0.10104-0.0408-0.2664-0.0408-0.36744 0-0.10104 0.0408-0.01833 0.0741 0.18369 0.0741 0.20208 0 0.28479-0.0334 0.18375-0.0741zm2.8529-4.4954c-0.04055-0.10104-0.0741-0.0184-0.0741 0.18371 0 0.20208 0.03333 0.28475 0.0741 0.18371 0.04055-0.10104 0.04055-0.26638 0-0.36742zm-3.0187-0.20943c-0.17325-0.29793-0.21508-0.20257-0.07327 0.16701 0.05055 0.13135 0.12259 0.20785 0.16047 0.17001 0.03777-0.0378 0-0.18949-0.08721-0.33702zm5.6672-0.0753c-0.04666-0.11723-0.08171-0.0824-0.08876 0.0888-0.0067 0.15493 0.02833 0.24173 0.07721 0.19289 0.04888-0.0488 0.05388-0.17559 0.01166-0.28169zm-2.6454-0.29393c-0.04666-0.11724-0.08171-0.0824-0.08876 0.0888-0.0061 0.15493 0.02833 0.24173 0.07721 0.1929 0.04888-0.0488 0.05388-0.1756 0.01166-0.28169zm-8.1158 18.683c-0.14525-0.23504 0.37083-0.72558 0.76332-0.72558 0.39394 0 0.3936-1e-3 0.20136 0.50482-0.1497 0.39369-0.77004 0.53565-0.96468 0.22076zm-0.14203-7.6344c-0.11382-0.18417 0.0461-0.73363 0.29873-1.0275 0.10432-0.12125 0.21219-0.38579 0.2398-0.58787 0.03444-0.25425 0.15581-0.38239 0.39327-0.41601 0.39383-0.0558 0.61873-0.50793 0.99212-1.9942 0.18858-0.7508 0.30328-0.97317 0.48403-0.93836 0.30856 0.0594 0.24813 0.88933-0.15286 2.0994-0.36689 1.1072-0.63096 1.5199-1.0822 1.6915-0.21141 0.0804-0.39527 0.30122-0.45343 0.54457-0.16036 0.67067-0.50653 0.97309-0.7195 0.6285zm-1.0004-5.6784c-0.16447-0.16443-0.11515-1.2018 0.06232-1.3114 0.24452-0.15111 0.43265 0.23895 0.38933 0.80711-0.03722 0.48522-0.24196 0.71406-0.45165 0.50432zm-1.0521-8.2972c-1.3433-0.32985-1.9613-0.65871-1.7101-0.90997 0.11909-0.11905 0.29106-0.11711 0.64034 7e-3 0.26268 0.0935 0.8082 0.24203 1.2124 0.33 1.4692 0.31976 1.8371 0.45334 1.8371 0.66686 0 0.28749-0.52775 0.26239-1.9797-0.0941zm2.4574 0.064c-0.33084-0.13235-0.2098-0.51404 0.14698-0.46337 0.18186 0.0258 0.33067 0.14065 0.33067 0.25517 0 0.23236-0.19964 0.31939-0.47765 0.2082zm0.9974-0.263c-0.17897-0.21566-0.0971-0.52083 0.13981-0.52083 0.21224 0 0.59835 0.45498 0.50886 0.59973-0.12504 0.20227-0.44793 0.163-0.64867-0.0789zm4.6609-3.2727c-0.2223-0.0331-0.40416-0.11411-0.40416-0.18017 0-0.15067 1.1332-1.1831 1.2986-1.1831 0.2634 0 0.29262 0.19607 0.07804 0.52356-0.12359 0.1886-0.24168 0.45851-0.2624 0.5998-0.04277 0.29149-0.14059 0.32452-0.71011 0.23989zm1.3001-1.6342c-0.04222-0.0682-0.03666-0.3689 0.01166-0.66821 0.06388-0.39334 0.15353-0.53164 0.3235-0.49891 0.3119 0.0601 0.38588 0.5111 0.1547 0.94303-0.19341 0.36144-0.35833 0.43688-0.48987 0.22409z" fill="#ce5857" stroke-width=".14697"/>
 </g>
</svg>
